<svg width="182" height="57" viewBox="0 0 182 57" fill="none" xmlns="http://www.w3.org/2000/svg">
<path d="M85.7559 14.0449C85.7559 10.1309 86.9453 6.90234 89.3242 4.35938C91.7031 1.81641 94.7148 0.544922 98.3594 0.544922C100.973 0.544922 103.229 1.02539 105.127 1.98633C107.236 3.06445 108.291 4.46484 108.291 6.1875C108.291 6.96094 108.057 7.57031 107.588 8.01562C107.119 8.46094 106.48 8.68359 105.672 8.68359C105.121 8.68359 104.166 8.23242 102.807 7.33008C101.447 6.42773 100.047 5.97656 98.6055 5.97656C96.6133 5.97656 95.0137 6.73828 93.8066 8.26172C92.6113 9.78516 92.0137 11.7129 92.0137 14.0449C92.0137 16.2715 92.5176 18.1172 93.5254 19.582C94.6973 21.2812 96.3555 22.1367 98.5 22.1484C100.035 22.1484 101.295 21.6914 102.279 20.7773C103.264 19.8633 103.826 18.6387 103.967 17.1035H100.627C99.6895 17.1035 98.9688 16.8633 98.4648 16.3828C97.9609 15.9023 97.709 15.2402 97.709 14.3965C97.709 12.5801 98.6699 11.6719 100.592 11.6719C100.604 11.6719 100.615 11.6719 100.627 11.6719H106.92C108.982 11.6719 110.014 12.8672 110.014 15.2578C110.014 18.8086 108.971 21.7266 106.885 24.0117C104.729 26.3906 101.887 27.5801 98.3594 27.5801C94.4453 27.5801 91.334 26.2559 89.0254 23.6074C86.8457 21.1113 85.7559 17.9238 85.7559 14.0449ZM110.91 24.8027C110.91 24.3457 110.963 23.8711 111.068 23.3789C111.186 22.8867 111.42 22.1484 111.771 21.1641L117.396 5.87109C118.064 4.01953 118.639 2.77148 119.119 2.12695C119.916 1.07227 120.959 0.544922 122.248 0.544922C123.303 0.544922 124.176 0.855469 124.867 1.47656C125.57 2.09766 126.344 3.5625 127.188 5.87109L132.795 21.1641C133.182 22.1953 133.422 22.9395 133.516 23.3965C133.609 23.8535 133.656 24.3223 133.656 24.8027C133.656 25.541 133.404 26.127 132.9 26.5605C132.396 26.9941 131.717 27.2109 130.861 27.2109C129.971 27.2109 129.285 26.9473 128.805 26.4199C128.418 26.0098 128.084 25.3125 127.803 24.3281L127.082 22.0254H117.502L116.781 24.3281C116.465 25.2891 116.131 25.9746 115.779 26.3848C115.299 26.9355 114.613 27.2109 113.723 27.2109C112.879 27.2109 112.199 26.9941 111.684 26.5605C111.168 26.1152 110.91 25.5293 110.91 24.8027ZM119.225 16.5586H125.342L122.441 7.08398L119.225 16.5586ZM134.482 24.416C134.482 23.9355 134.529 23.3555 134.623 22.6758C134.623 22.6289 134.898 21.0352 135.449 17.8945L137.752 4.60547C137.986 3.1875 138.502 2.17969 139.299 1.58203C139.896 1.125 140.664 0.896484 141.602 0.896484C142.973 0.896484 143.998 1.36523 144.678 2.30273C145.182 2.99414 145.838 4.65234 146.646 7.27734L149.494 16.1719L152.412 7.27734C153.08 5.19141 153.572 3.83203 153.889 3.19922C154.662 1.66406 155.852 0.896484 157.457 0.896484C158.371 0.896484 159.127 1.125 159.725 1.58203C160.545 2.20312 161.072 3.21094 161.307 4.60547L163.609 17.8945C163.996 20.0977 164.254 21.6504 164.383 22.5527C164.512 23.4551 164.576 24.0762 164.576 24.416C164.576 25.1309 164.324 25.7754 163.82 26.3496C163.316 26.9238 162.654 27.2109 161.834 27.2109C160.662 27.2109 159.812 26.8184 159.285 26.0332C158.945 25.5059 158.67 24.6035 158.459 23.3262L156.736 11.8477L152.729 24.5566C152.436 25.5176 152.049 26.2031 151.568 26.6133C151.1 27.0117 150.42 27.2109 149.529 27.2109C148.662 27.2109 147.988 27.0117 147.508 26.6133C147.027 26.2031 146.635 25.5176 146.33 24.5566L142.41 11.8477L140.6 23.3262C140.365 24.9316 139.973 25.9805 139.422 26.4727C138.883 26.9648 138.15 27.2109 137.225 27.2109C136.404 27.2109 135.742 26.9238 135.238 26.3496C134.734 25.7754 134.482 25.1309 134.482 24.416ZM166.053 24.0469V4.06055C166.053 3.12305 166.334 2.39648 166.896 1.88086C167.459 1.36523 168.15 1.10742 168.971 1.10742H177.9C178.838 1.10742 179.559 1.34766 180.062 1.82812C180.566 2.30859 180.818 2.98242 180.818 3.84961C180.818 4.69336 180.566 5.35547 180.062 5.83594C179.559 6.31641 178.838 6.55664 177.9 6.55664H171.889V11.2676H177.391C178.305 11.2676 179.02 11.5078 179.535 11.9883C180.051 12.4688 180.309 13.1309 180.309 13.9746C180.309 15.791 179.348 16.6992 177.426 16.6992C177.414 16.6992 177.402 16.6992 177.391 16.6992H171.889V21.5332H178.111C179.049 21.5332 179.77 21.7734 180.273 22.2539C180.777 22.7344 181.029 23.4023 181.029 24.2578C181.029 25.1016 180.771 25.7695 180.256 26.2617C179.74 26.7539 179.025 27 178.111 27H168.971C168.174 27 167.488 26.7363 166.914 26.209C166.34 25.6816 166.053 24.9609 166.053 24.0469ZM85.2812 52.3262C85.2812 51.459 85.5215 50.7207 86.002 50.1113C86.4824 49.502 87.1562 49.1973 88.0234 49.1973C88.3633 49.1973 89.2129 49.4492 90.5723 49.9531C91.9434 50.457 93.1914 50.709 94.3164 50.709C95.3477 50.709 96.1211 50.4688 96.6367 49.9883C97.1641 49.5078 97.4277 48.9336 97.4277 48.2656C97.4277 47.2578 96.6543 46.4668 95.1074 45.8926C94.8145 45.7754 93.7363 45.4121 91.873 44.8027C89.377 44.0059 87.7246 43.0625 86.916 41.9727C86.1191 40.8828 85.7207 39.5 85.7207 37.8242C85.7207 35.1406 86.6465 33.0488 88.498 31.5488C90.1621 30.2129 92.2832 29.5449 94.8613 29.5449C94.8848 29.5449 94.9082 29.5449 94.9316 29.5449C97.2402 29.5449 99.0273 29.9023 100.293 30.6172C101.57 31.3203 102.209 32.2578 102.209 33.4297C102.209 34.2266 101.969 34.8887 101.488 35.416C101.008 35.9434 100.381 36.207 99.6074 36.207C99.1504 36.207 98.2188 35.9902 96.8125 35.5566C96.0156 35.3223 95.2949 35.1992 94.6504 35.1875C93.8535 35.1875 93.209 35.3867 92.7168 35.7852C92.2246 36.1836 91.9785 36.6934 91.9785 37.3145C91.9785 38.0527 92.6406 38.6562 93.9648 39.125C95.2891 39.5938 96.4551 39.998 97.4629 40.3379C99.3848 40.959 100.809 41.7383 101.734 42.6758C103.035 43.9531 103.686 45.7051 103.686 47.9316C103.686 50.791 102.736 52.9766 100.838 54.4883C99.0801 55.8828 96.7656 56.5801 93.8945 56.5801C91.832 56.5801 89.9688 56.2402 88.3047 55.5605C86.2891 54.7402 85.2812 53.6621 85.2812 52.3262ZM104.775 32.7793C104.775 31.9824 105.045 31.3027 105.584 30.7402C106.123 30.1777 106.826 29.8965 107.693 29.8965C108.584 29.8965 109.27 30.1309 109.75 30.5996C110.23 31.0684 110.553 31.7129 110.717 32.5332L113.705 46.4551L117.994 32.9199C118.357 31.8184 118.785 31.0391 119.277 30.582C119.781 30.125 120.443 29.8965 121.264 29.8965C122.061 29.8965 122.717 30.1191 123.232 30.5645C123.748 31.0098 124.182 31.7949 124.533 32.9199L128.752 46.4551L131.811 32.5332C131.998 31.6895 132.297 31.0625 132.707 30.6523C133.211 30.1484 133.92 29.8965 134.834 29.8965C135.725 29.8965 136.434 30.1719 136.961 30.7227C137.488 31.2734 137.752 31.959 137.752 32.7793C137.752 33.1895 137.664 33.7344 137.488 34.4141C137.324 35.082 137.219 35.5332 137.172 35.7676L133.287 51.8164C132.971 53.0938 132.695 53.9727 132.461 54.4531C131.863 55.625 130.773 56.2109 129.191 56.2109C127.129 56.2109 125.746 55.1328 125.043 52.9766L121.299 41.1289L117.484 52.9766C117.121 54.0547 116.617 54.8633 115.973 55.4023C115.328 55.9414 114.455 56.2109 113.354 56.2109C112.053 56.2109 111.104 55.8418 110.506 55.1035C110.049 54.5293 109.627 53.4336 109.24 51.8164L105.355 35.7676C105.238 35.3105 105.109 34.8066 104.969 34.2559C104.84 33.7051 104.775 33.2129 104.775 32.7793ZM138.086 53.8027C138.086 53.3457 138.139 52.8711 138.244 52.3789C138.361 51.8867 138.596 51.1484 138.947 50.1641L144.572 34.8711C145.24 33.0195 145.814 31.7715 146.295 31.127C147.092 30.0723 148.135 29.5449 149.424 29.5449C150.479 29.5449 151.352 29.8555 152.043 30.4766C152.746 31.0977 153.52 32.5625 154.363 34.8711L159.971 50.1641C160.357 51.1953 160.598 51.9395 160.691 52.3965C160.785 52.8535 160.832 53.3223 160.832 53.8027C160.832 54.541 160.58 55.127 160.076 55.5605C159.572 55.9941 158.893 56.2109 158.037 56.2109C157.146 56.2109 156.461 55.9473 155.98 55.4199C155.594 55.0098 155.26 54.3125 154.979 53.3281L154.258 51.0254H144.678L143.957 53.3281C143.641 54.2891 143.307 54.9746 142.955 55.3848C142.475 55.9355 141.789 56.2109 140.898 56.2109C140.055 56.2109 139.375 55.9941 138.859 55.5605C138.344 55.1152 138.086 54.5293 138.086 53.8027ZM146.4 45.5586H152.518L149.617 36.084L146.4 45.5586ZM161.623 53.082V33.0605C161.623 32.123 161.904 31.3965 162.467 30.8809C163.029 30.3652 163.721 30.1074 164.541 30.1074H171.695C174.121 30.1074 176.148 30.8398 177.777 32.3047C179.582 33.9102 180.484 36.1074 180.484 38.8965C180.484 41.5098 179.734 43.6309 178.234 45.2598C176.734 46.877 174.619 47.6855 171.889 47.6855H167.459V53.082C167.459 54.0898 167.189 54.8633 166.65 55.4023C166.111 55.9414 165.408 56.2109 164.541 56.2109C163.65 56.2109 162.941 55.9473 162.414 55.4199C161.887 54.8926 161.623 54.1133 161.623 53.082ZM167.459 42.4297H170.588C171.76 42.4297 172.691 42.084 173.383 41.3926C174.086 40.6895 174.438 39.8574 174.438 38.8965C174.438 37.7715 174.086 36.8984 173.383 36.2773C172.691 35.6445 171.76 35.3281 170.588 35.3281H167.459V42.4297Z" fill="black"/>
<path d="M78.4432 39.5964L78.4564 39.5931L73.0533 16.8106C72.9594 16.3045 72.8408 15.8115 72.7025 15.3252L72.6531 15.1241C70.5742 8.11736 64.1053 3 56.429 3C52.9681 3 49.7526 4.04359 47.0725 5.82576H31.9225C29.2441 4.04359 26.0286 3 22.5726 3C14.1386 3 7.164 9.18238 5.87583 17.2557H5.86265L0.334397 40.2938C0.265211 40.5575 0.192731 40.818 0.146607 41.0851L0.0955419 41.2978L0.121898 41.3242C0.0642437 41.7231 0 42.1155 0 42.5277C0 47.2098 3.78873 51 8.4637 51C10.5903 51 12.5094 50.1922 13.987 48.8914L13.9887 48.898L28.8916 36.6486H50.1216L64.6028 48.4595C65.0212 48.8848 65.4907 49.2673 65.9964 49.5987L66.2517 49.8047V49.7536C67.507 50.5169 68.95 51 70.5297 51C75.208 51 79 47.2098 79 42.5277C79 41.4923 78.7875 40.513 78.4432 39.5964ZM57.2412 9.0983C59.3217 9.0983 61.0002 10.7849 61.0002 12.8638C61.0002 14.9493 59.32 16.6326 57.2412 16.6326C55.1557 16.6326 53.4755 14.9493 53.4755 12.8638C53.4738 10.7865 55.1557 9.0983 57.2412 9.0983ZM33.1827 20.2859C33.1827 22.3682 31.5008 24.0547 29.4203 24.0547H25.653V27.8202C25.653 29.8991 23.9711 31.5873 21.8906 31.5873C19.8085 31.5873 18.1233 29.9008 18.1233 27.8202V24.0547H14.3593C12.2771 24.0547 10.5936 22.3682 10.5936 20.2859C10.5936 18.2037 12.2771 16.5172 14.3593 16.5172H18.1217V12.7517C18.1217 10.6678 19.8052 8.9829 21.889 8.9829C23.9695 8.9829 25.6514 10.6678 25.6514 12.7517V16.5172H29.4187C31.4992 16.5172 33.1827 18.2054 33.1827 20.2859ZM49.5484 24.1685C47.4679 24.1685 45.7893 22.4819 45.7893 20.3997C45.7893 18.3175 47.4695 16.6309 49.5484 16.6309C51.6338 16.6309 53.3124 18.3175 53.3124 20.3997C53.3124 22.4819 51.6322 24.1685 49.5484 24.1685ZM57.2412 31.7044C55.1557 31.7044 53.4755 30.0178 53.4755 27.934C53.4755 25.855 55.1573 24.1685 57.2412 24.1685C59.3217 24.1685 61.0002 25.855 61.0002 27.934C61.0002 30.0162 59.32 31.7044 57.2412 31.7044ZM64.7659 24.1685C62.6854 24.1685 61.0002 22.4819 61.0002 20.3997C61.0002 18.3175 62.6854 16.6309 64.7659 16.6309C66.853 16.6309 68.5316 18.3175 68.5316 20.3997C68.5316 22.4819 66.8514 24.1685 64.7659 24.1685Z" fill="url(#paint0_linear)"/>
<defs>
<linearGradient id="paint0_linear" x1="5.72464" y1="-15.2857" x2="91.4269" y2="77.4404" gradientUnits="userSpaceOnUse">
<stop stop-color="#49FFD3"/>
<stop offset="1" stop-color="#4B47FF"/>
</linearGradient>
</defs>
</svg>
